<svg width="175" height="55" viewBox="0 0 175 55" fill="none" xmlns="http://www.w3.org/2000/svg">
<path d="M0 55V0.719997H2.76V55H0ZM11.04 55V0.719997H19.32V55H11.04ZM22.08 55V0.719997H24.84V55H22.08ZM27.6 55V0.719997H35.88V55H27.6ZM38.64 55V0.719997H41.4V55H38.64ZM44.2031 55V0.719997H46.9631V55H44.2031ZM55.2431 55V0.719997H63.5231V55H55.2431ZM66.2831 55V0.719997H69.0431V55H66.2831ZM71.8031 55V0.719997H80.0831V55H71.8031ZM82.8431 55V0.719997H85.6031V55H82.8431ZM88.4062 55V0.719997H91.1663V55H88.4062ZM99.4463 55V0.719997H107.726V55H99.4463ZM110.486 55V0.719997H113.246V55H110.486ZM116.006 55V0.719997H124.286V55H116.006ZM127.046 55V0.719997H129.806V55H127.046ZM132.609 55V0.719997H135.369V55H132.609ZM143.649 55V0.719997H151.929V55H143.649ZM154.689 55V0.719997H157.449V55H154.689ZM160.209 55V0.719997H168.489V55H160.209ZM171.249 55V0.719997H174.009V55H171.249Z" fill="#79AA81"/>
</svg>
